<svg xmlns="http://www.w3.org/2000/svg" version="1.1" xmlns:xlink="http://www.w3.org/1999/xlink" xmlns:svgjs="http://svgjs.dev/svgjs" width="400" height="400" preserveAspectRatio="none" viewBox="0 0 400 400"><g mask="url(&quot;#SvgjsMask1079&quot;)" fill="none"><use xlink:href="#SvgjsPath1080" x="30" y="30" stroke="rgba(201, 202, 202, 1)"></use><use xlink:href="#SvgjsPath1081" x="30" y="90" stroke="rgba(201, 202, 202, 1)"></use><use xlink:href="#SvgjsPath1081" x="30" y="150" stroke="rgba(201, 202, 202, 1)"></use><use xlink:href="#SvgjsPath1080" x="30" y="210" stroke="rgba(201, 202, 202, 1)"></use><use xlink:href="#SvgjsPath1081" x="30" y="270" stroke="rgba(201, 202, 202, 1)"></use><use xlink:href="#SvgjsPath1081" x="30" y="330" stroke="rgba(201, 202, 202, 1)"></use><use xlink:href="#SvgjsPath1081" x="30" y="390" stroke="rgba(201, 202, 202, 1)"></use><use xlink:href="#SvgjsPath1081" x="90" y="30" stroke="rgba(201, 202, 202, 1)"></use><use xlink:href="#SvgjsPath1080" x="90" y="90" stroke="rgba(201, 202, 202, 1)"></use><use xlink:href="#SvgjsPath1080" x="90" y="150" stroke="rgba(201, 202, 202, 1)"></use><use xlink:href="#SvgjsPath1082" x="90" y="210" stroke="rgba(201, 202, 202, 1)" stroke-width="3"></use><use xlink:href="#SvgjsPath1080" x="90" y="270" stroke="rgba(201, 202, 202, 1)"></use><use xlink:href="#SvgjsPath1080" x="90" y="330" stroke="rgba(201, 202, 202, 1)"></use><use xlink:href="#SvgjsPath1081" x="90" y="390" stroke="rgba(201, 202, 202, 1)"></use><use xlink:href="#SvgjsPath1082" x="150" y="30" stroke="rgba(201, 202, 202, 1)" stroke-width="3"></use><use xlink:href="#SvgjsPath1083" x="150" y="90" stroke="rgba(201, 202, 202, 1)"></use><use xlink:href="#SvgjsPath1080" x="150" y="150" stroke="rgba(201, 202, 202, 1)"></use><use xlink:href="#SvgjsPath1081" x="150" y="210" stroke="rgba(201, 202, 202, 1)"></use><use xlink:href="#SvgjsPath1081" x="150" y="270" stroke="rgba(201, 202, 202, 1)"></use><use xlink:href="#SvgjsPath1083" x="150" y="330" stroke="rgba(201, 202, 202, 1)"></use><use xlink:href="#SvgjsPath1080" x="150" y="390" stroke="rgba(201, 202, 202, 1)"></use><use xlink:href="#SvgjsPath1081" x="210" y="30" stroke="rgba(201, 202, 202, 1)"></use><use xlink:href="#SvgjsPath1083" x="210" y="90" stroke="rgba(201, 202, 202, 1)"></use><use xlink:href="#SvgjsPath1083" x="210" y="150" stroke="rgba(201, 202, 202, 1)"></use><use xlink:href="#SvgjsPath1080" x="210" y="210" stroke="rgba(201, 202, 202, 1)"></use><use xlink:href="#SvgjsPath1084" x="210" y="270" stroke="rgba(201, 202, 202, 1)"></use><use xlink:href="#SvgjsPath1080" x="210" y="330" stroke="rgba(201, 202, 202, 1)"></use><use xlink:href="#SvgjsPath1082" x="210" y="390" stroke="rgba(201, 202, 202, 1)" stroke-width="3"></use><use xlink:href="#SvgjsPath1081" x="270" y="30" stroke="rgba(201, 202, 202, 1)"></use><use xlink:href="#SvgjsPath1081" x="270" y="90" stroke="rgba(201, 202, 202, 1)"></use><use xlink:href="#SvgjsPath1081" x="270" y="150" stroke="rgba(201, 202, 202, 1)"></use><use xlink:href="#SvgjsPath1083" x="270" y="210" stroke="rgba(201, 202, 202, 1)"></use><use xlink:href="#SvgjsPath1084" x="270" y="270" stroke="rgba(201, 202, 202, 1)"></use><use xlink:href="#SvgjsPath1081" x="270" y="330" stroke="rgba(201, 202, 202, 1)"></use><use xlink:href="#SvgjsPath1080" x="270" y="390" stroke="rgba(201, 202, 202, 1)"></use><use xlink:href="#SvgjsPath1083" x="330" y="30" stroke="rgba(201, 202, 202, 1)"></use><use xlink:href="#SvgjsPath1082" x="330" y="90" stroke="rgba(201, 202, 202, 1)" stroke-width="3"></use><use xlink:href="#SvgjsPath1080" x="330" y="150" stroke="rgba(201, 202, 202, 1)"></use><use xlink:href="#SvgjsPath1081" x="330" y="210" stroke="rgba(201, 202, 202, 1)"></use><use xlink:href="#SvgjsPath1081" x="330" y="270" stroke="rgba(201, 202, 202, 1)"></use><use xlink:href="#SvgjsPath1084" x="330" y="330" stroke="rgba(201, 202, 202, 1)"></use><use xlink:href="#SvgjsPath1085" x="330" y="390" stroke="rgba(201, 202, 202, 1)"></use><use xlink:href="#SvgjsPath1080" x="390" y="30" stroke="rgba(201, 202, 202, 1)"></use><use xlink:href="#SvgjsPath1080" x="390" y="90" stroke="rgba(201, 202, 202, 1)"></use><use xlink:href="#SvgjsPath1084" x="390" y="150" stroke="rgba(201, 202, 202, 1)"></use><use xlink:href="#SvgjsPath1081" x="390" y="210" stroke="rgba(201, 202, 202, 1)"></use><use xlink:href="#SvgjsPath1081" x="390" y="270" stroke="rgba(201, 202, 202, 1)"></use><use xlink:href="#SvgjsPath1085" x="390" y="330" stroke="rgba(201, 202, 202, 1)"></use><use xlink:href="#SvgjsPath1080" x="390" y="390" stroke="rgba(201, 202, 202, 1)"></use></g><defs><mask id="SvgjsMask1079"><rect width="400" height="400" fill="#ffffff"></rect></mask><path d="M-1 0 a1 1 0 1 0 2 0 a1 1 0 1 0 -2 0z" id="SvgjsPath1083"></path><path d="M-3 0 a3 3 0 1 0 6 0 a3 3 0 1 0 -6 0z" id="SvgjsPath1084"></path><path d="M-5 0 a5 5 0 1 0 10 0 a5 5 0 1 0 -10 0z" id="SvgjsPath1081"></path><path d="M2 -2 L-2 2z" id="SvgjsPath1085"></path><path d="M6 -6 L-6 6z" id="SvgjsPath1080"></path><path d="M30 -30 L-30 30z" id="SvgjsPath1082"></path></defs></svg>